<?xml version="1.0" encoding="UTF-8"?>
<svg id="_图层_1" xmlns="http://www.w3.org/2000/svg" version="1.1" viewBox="0 0 40 40">
  <!-- Generator: Adobe Illustrator 29.1.0, SVG Export Plug-In . SVG Version: 2.1.0 Build 142)  -->
  <defs>
    <style>
      .st0 {
        fill: #66f4ff;
      }
    </style>
  </defs>
  <path class="st0" d="M39.9,17.8c0-4.5-.7-9.5-3.1-12.5C32-.5,22.3-.2,15.4.2,5.5.8.5,4.4,0,15.4v4.6c0,5,.4,11.2,3.2,14.7,4.7,5.8,14.4,5.6,21.3,5.1,9.9-.6,14.9-4.2,15.4-15.2v-6.8h0ZM30.3,35.3c-2.4,0-4.4-2-4.4-4.4s2-4.4,4.4-4.4,4.4,2,4.4,4.4-2,4.4-4.4,4.4Z"/>
</svg>